<svg viewBox="0 0 100 100" xmlns="http://www.w3.org/2000/svg">
  <path d="M50 0 L95 20 A30 30 0 0 1 100 50 L100 75 A25 25 0 0 1 95 80 L50 100 L50 90 A20 20 0 0 0 55 80 L60 80 L60 70 L65 70 A15 15 0 0 1 70 75 L70 50 A30 30 0 0 0 50 20 A30 30 0 0 0 30 50 L30 75 A15 15 0 0 1 35 80 L40 80 L40 90 A20 20 0 0 0 50 100 L5 80 A30 30 0 0 1 0 50 L0 25 A25 25 0 0 1 5 20 L50 0 Z" fill="#ffffff" stroke="#000000" stroke-width="2"/>
  <text x="50" y="50" text-anchor="middle" alignment-baseline="middle">Hello, world!</text>
</svg>